<svg width="20" height="16" viewBox="0 0 20 16" fill="none" xmlns="http://www.w3.org/2000/svg">
<path d="M11.7345 9.73437C11.5098 9.97552 11.2388 10.1689 10.9378 10.3031C10.6367 10.4373 10.3116 10.5094 9.98207 10.5152C9.6525 10.521 9.32513 10.4604 9.0195 10.3369C8.71387 10.2135 8.43623 10.0298 8.20315 9.79667C7.97007 9.56359 7.78632 9.28596 7.66287 8.98032C7.53942 8.67469 7.47879 8.34732 7.48461 8.01775C7.49042 7.68817 7.56256 7.36315 7.69672 7.06206C7.83087 6.76097 8.0243 6.48999 8.26545 6.26528M14.86 12.8598C13.4614 13.9259 11.7584 14.5165 10 14.5453C4.27273 14.5453 1 7.99982 1 7.99982C2.01773 6.10319 3.42929 4.44614 5.14 3.13982L14.86 12.8598ZM8.28182 1.65073C8.845 1.5189 9.4216 1.45301 10 1.45437C15.7273 1.45437 19 7.99982 19 7.99982C18.5033 8.92895 17.911 9.8037 17.2327 10.6098L8.28182 1.65073Z" stroke="#333333" stroke-width="2" stroke-linecap="round" stroke-linejoin="round"/>
</svg>
