<svg width="20" height="20" viewBox="0 0 20 20" fill="none" xmlns="http://www.w3.org/2000/svg">
<path d="M11.7345 11.7344C11.5098 11.9755 11.2388 12.1689 10.9378 12.3031C10.6367 12.4373 10.3116 12.5094 9.98207 12.5152C9.6525 12.521 9.32513 12.4604 9.0195 12.3369C8.71387 12.2135 8.43623 12.0298 8.20315 11.7967C7.97007 11.5636 7.78632 11.286 7.66287 10.9803C7.53942 10.6747 7.47879 10.3473 7.48461 10.0177C7.49042 9.68817 7.56256 9.36315 7.69672 9.06206C7.83087 8.76097 8.0243 8.48999 8.26545 8.26528M14.86 14.8598C13.4614 15.9259 11.7584 16.5165 10 16.5453C4.27273 16.5453 1 9.99982 1 9.99982C2.01773 8.10319 3.42929 6.44614 5.14 5.13982L14.86 14.8598ZM8.28182 3.65073C8.845 3.5189 9.4216 3.45301 10 3.45437C15.7273 3.45437 19 9.99982 19 9.99982C18.5033 10.929 17.911 11.8037 17.2327 12.6098L8.28182 3.65073Z" stroke="#333333" stroke-width="2" stroke-linecap="round" stroke-linejoin="round"/>
<path d="M1 1L19 19" stroke="#333333" stroke-width="2" stroke-linecap="round" stroke-linejoin="round"/>
</svg>
